---
title: "qdvdauthor slideshow error"
date: 2009-02-19
forum: Multimedia Software
---

### Post by metalmaniac248 on 2009-02-19
i am trying to create a slideshow, with some photos and a soundtrack on qdvdauthor but when i generate the slideshow i get an error and the slideshow is not finished

```
[dvd-slideshow] Thu Feb 19 18:45:38 GMT 2009
[dvd-slideshow] Command line was:
[dvd-slideshow] /usr/bin/dvd-slideshow -p -o /tmp/Unnamed/ -n slideshow -f /tmp/Unnamed//My Slideshow.in -a /home/nick/Music/Megadeth/Youthanasia [Bonus Tracks][Remaster]/09 Youthanasia.mp3 -t 6
[dvd-slideshow] dvd-slideshow version 0.8.0
[dvd-slideshow] Linux nick-desktop 2.6.27-11-generic #1 SMP Thu Jan 29 19:24:39 UTC 2009 i686 GNU/Linux
[dvd-slideshow] Output directory=/tmp/Unnamed
[dvd-slideshow] Using /bin/bash version GNU bash, version 3.2.39(1)-release (i486-pc-linux-gnu)
[dvd-slideshow] Found mjpegtools version 1.8.0
[dvd-slideshow] Using mjpegtools subsampling -S 420mpeg2
[dvd-slideshow] Found sox version v14.0.1
[dvd-slideshow] Found ImageMagick version 6.3.7
[dvd-slideshow] Found dvdauthor version 0.6.14.
FFmpeg version r11872+debian_3:0.svn20080206-12ubuntu3, Copyright (c) 2000-2008 Fabrice Bellard, et al.
  configuration: --enable-gpl --enable-pp --enable-swscaler --enable-x11grab --prefix=/usr --enable-libgsm --enable-libtheora --enable-libvorbis --enable-pthreads --disable-strip --enable-libfaad --enable-libfaadbin --enable-liba52 --enable-liba52bin --enable-libdc1394 --disable-armv5te --disable-armv6 --disable-altivec --disable-vis --enable-shared --disable-static
  libavutil version: 49.6.0
  libavcodec version: 51.50.0
  libavformat version: 52.7.0
  libavdevice version: 52.0.0
  built on Oct  3 2008 22:40:31, gcc: 4.3.2
FFmpeg r11872+debian_3:0.svn20080206-12ubuntu3
libavutil   3212800
libavcodec  3355136
libavformat 3409664
libavdevice 3407872
[dvd-slideshow] ####################################
[dvd-slideshow] Parsing input file /tmp/Unnamed//My Slideshow.in
[dvd-slideshow]############################################################
[dvd-slideshow] Found 6 images.
[dvd-slideshow] Found 1 audio files.
[dvd-slideshow] Found 0 background slides.
[dvd-slideshow] Found 1 title slides.
[dvd-slideshow] Found 7 transitions (fadein/fadeout/crossfade/wipe).
[dvd-slideshow] Video: PAL 720x576 25fps 4:3
[dvd-slideshow] Audio: AC3 48000 192
[dvd-slideshow] Debug=0  Autocrop=0 Subtitles=dvd Border=0
[dvd-slideshow] Using SMP optimizations for multi-processor machines
[dvd-slideshow] Title_font=...r/share/fonts/type1/gsfonts/n019004l.pfb
[dvd-slideshow] Subtitle_font=...r/share/fonts/type1/gsfonts/n019004l.pfb
[dvd-slideshow] Decoding command-line passed audio files...
[dvd-slideshow] Decoding mp3 audio: /home/nick/Music/Megadeth/Youthanasia [Bonus Tracks][Remaster]/09 Youthanasia.mp3
FFmpeg version r11872+debian_3:0.svn20080206-12ubuntu3, Copyright (c) 2000-2008 Fabrice Bellard, et al.
  configuration: --enable-gpl --enable-pp --enable-swscaler --enable-x11grab --prefix=/usr --enable-libgsm --enable-libtheora --enable-libvorbis --enable-pthreads --disable-strip --enable-libfaad --enable-libfaadbin --enable-liba52 --enable-liba52bin --enable-libdc1394 --disable-armv5te --disable-armv6 --disable-altivec --disable-vis --enable-shared --disable-static
  libavutil version: 49.6.0
  libavcodec version: 51.50.0
  libavformat version: 52.7.0
  libavdevice version: 52.0.0
  built on Oct  3 2008 22:40:31, gcc: 4.3.2
mdb:333, lastbuf:0 skipping granule 0
mdb:333, lastbuf:0 skipping granule 0
mdb:333, lastbuf:0 skipping granule 1
mdb:333, lastbuf:0 skipping granule 1
invalid new backstep 591
Input #0, mp3, from '/home/nick/Music/Megadeth/Youthanasia [Bonus Tracks][Remaster]/09 Youthanasia.mp3':
  Duration: 00:04:08.0, start: 0.000000, bitrate: 192 kb/s
    Stream #0.0: Audio: mp3, 44100 Hz, stereo, 192 kb/s
WARNING: The bitrate parameter is set too low. It takes bits/s as argument, not kbits/s
Output #0, wav, to '/tmp/Unnamed/dvd-slideshow_temp_9754/audio1_0000.wav':
    Stream #0.0: Audio: pcm_s16le, 48000 Hz, stereo, 1536 kb/s
Stream mapping:
  Stream #0.0 -> #0.0
Press [q] to stop encoding
mdb:333, lastbuf:0 skipping granule 0
mdb:333, lastbuf:0 skipping granule 0
mdb:333, lastbuf:0 skipping granule 1
mdb:333, lastbuf:0 skipping granule 1
invalid new backstep 591
invalid new backstep 591
invalid new backstep 591
invalid new backstep 591
invalid new backstep 591
invalid new backstep 591
invalid new backstep 591
size=    6368kB time=34.0 bitrate=1533.8kbits/s    
size=   13152kB time=70.2 bitrate=1535.0kbits/s    
size=   20512kB time=109.6 bitrate=1533.8kbits/s    
size=   26752kB time=142.8 bitrate=1534.6kbits/s    
size=   33536kB time=178.9 bitrate=1535.3kbits/s    
size=   40896kB time=218.1 bitrate=1535.7kbits/s    
invalid new backstep 591
invalid new backstep 591
invalid new backstep 591
invalid new backstep 591
invalid new backstep 591
invalid new backstep 591
invalid new backstep 591
invalid new backstep 591
invalid new backstep 591
invalid new backstep 591
invalid new backstep 591
invalid new backstep 591
invalid new backstep 591
invalid new backstep 591
invalid new backstep 590
invalid new backstep 591
invalid new backstep 591
invalid new backstep 591
invalid new backstep 591
invalid new backstep 591
invalid new backstep 591
invalid new backstep 591
invalid new backstep 591
invalid new backstep 591
invalid new backstep 591
invalid new backstep 591
invalid new backstep 591
invalid new backstep 591
invalid new backstep 591
invalid new backstep 591
invalid new backstep 590
invalid new backstep 591
invalid new backstep 591
invalid new backstep 591
size=   46487kB time=247.9 bitrate=1536.0kbits/s    

video:0kB audio:46486kB global headers:0kB muxing overhead 0.000092%
[dvd-slideshow] Total audio length = 0:4:7.928
[dvd-slideshow] Total video length = 0:0:46.000
[dvd-slideshow] Temp dir is /tmp/Unnamed/dvd-slideshow_temp_9754
FFmpeg version r11872+debian_3:0.svn20080206-12ubuntu3, Copyright (c) 2000-2008 Fabrice Bellard, et al.
  configuration: --enable-gpl --enable-pp --enable-swscaler --enable-x11grab --prefix=/usr --enable-libgsm --enable-libtheora --enable-libvorbis --enable-pthreads --disable-strip --enable-libfaad --enable-libfaadbin --enable-liba52 --enable-liba52bin --enable-libdc1394 --disable-armv5te --disable-armv6 --disable-altivec --disable-vis --enable-shared --disable-static
  libavutil version: 49.6.0
  libavcodec version: 51.50.0
  libavformat version: 52.7.0
  libavdevice version: 52.0.0
  built on Oct  3 2008 22:40:31, gcc: 4.3.2
[dvd-slideshow] Creating black background
[dvd-slideshow]############################################################
[dvd-slideshow] Title 0:0:10.000
[dvd-slideshow]         Title=My Slideshow
Input #0, yuv4mpegpipe, from '/tmp/Unnamed/dvd-slideshow_temp_9754/dvdss-pipe-9754':
  Duration: N/A, bitrate: N/A
    Stream #0.0: Video: rawvideo, yuv420p, 720x576 [PAR 59:54 DAR 295:216], 25.00 tb(r)
Output #0, mpeg2video, to '/tmp/Unnamed/dvd-slideshow_temp_9754/video.mpg':
    Stream #0.0: Video: mpeg2video, yuv420p, 720x576 [PAR 16:15 DAR 4:3], q=2-31, 6000 kb/s, 25.00 tb(c)
Stream mapping:
  Stream #0.0 -> #0.0
Press [q] to stop encoding
frame=  102 fps=  0 q=2.5 size=     183kB time=4.0 bitrate= 379.5kbits/s    
frame=  205 fps=203 q=1.6 size=     368kB time=8.1 bitrate= 373.5kbits/s    
[dvd-slideshow]############################################################
[dvd-slideshow] Applying Fadein to next image 0:0:3.000
frame=  251 fps= 31 q=2.5 size=     436kB time=9.9 bitrate= 360.2kbits/s    
frame=  279 fps= 32 q=2.5 size=     573kB time=11.0 bitrate= 425.3kbits/s    
frame=  308 fps= 33 q=2.5 size=     866kB time=12.2 bitrate= 581.5kbits/s    
[dvd-slideshow]############################################################
[dvd-slideshow] 1/6 ...s/Desktop Backgrounds/destroy_ubuntu.jpg 0:0:6.000
frame=  326 fps= 33 q=2.5 size=    1072kB time=12.9 bitrate= 679.5kbits/s    
[dvd-slideshow]############################################################
[dvd-slideshow] Applying Crossfade between images 0:0:3.000
frame=  364 fps= 26 q=2.0 size=    1438kB time=14.4 bitrate= 815.9kbits/s    
frame=  389 fps= 26 q=2.5 size=    1709kB time=15.4 bitrate= 906.7kbits/s    
frame=  415 fps= 27 q=1.6 size=    2005kB time=16.5 bitrate= 996.4kbits/s    
[dvd-slideshow]############################################################
[dvd-slideshow] 2/6 ...p Backgrounds/Earth-From-Space-44975.jpg 0:0:6.000
frame=  439 fps= 28 q=1.6 size=    2239kB time=17.4 bitrate=1051.6kbits/s    
frame=  503 fps= 31 q=2.5 size=    2619kB time=20.0 bitrate=1072.8kbits/s    
[dvd-slideshow]############################################################
[dvd-slideshow] Applying Crossfade between images 0:0:3.000
frame=  514 fps= 25 q=2.0 size=    2692kB time=20.4 bitrate=1079.0kbits/s    
frame=  541 fps= 26 q=2.0 size=    2975kB time=21.5 bitrate=1132.6kbits/s    
frame=  568 fps= 27 q=2.0 size=    3299kB time=22.6 bitrate=1195.7kbits/s    
[dvd-slideshow]############################################################
[dvd-slideshow] 3/6 ...ktop Backgrounds/fantasy-landscape03.jpg 0:0:6.000
frame=  589 fps= 27 q=2.0 size=    3569kB time=23.4 bitrate=1247.4kbits/s    
frame=  654 fps= 29 q=2.5 size=    4014kB time=26.0 bitrate=1262.8kbits/s    
[dvd-slideshow]############################################################
[dvd-slideshow] Applying Crossfade between images 0:0:3.000
frame=  664 fps= 25 q=2.0 size=    4106kB time=26.4 bitrate=1272.1kbits/s    
frame=  691 fps= 25 q=1.6 size=    4434kB time=27.5 bitrate=1319.8kbits/s    
frame=  718 fps= 26 q=2.0 size=    4689kB time=28.6 bitrate=1343.0kbits/s    
[dvd-slideshow]############################################################
[dvd-slideshow] 4/6 ...unds/Northern Lights over the fjords.jpg 0:0:6.000
frame=  739 fps= 26 q=1.6 size=    4859kB time=29.4 bitrate=1352.1kbits/s    
frame=  810 fps= 28 q=2.5 size=    5038kB time=32.3 bitrate=1278.6kbits/s    
[dvd-slideshow]############################################################
[dvd-slideshow] Applying Crossfade between images 0:0:3.000
frame=  814 fps= 25 q=2.0 size=    5071kB time=32.4 bitrate=1280.5kbits/s    
frame=  843 fps= 25 q=2.5 size=    5240kB time=33.6 bitrate=1277.6kbits/s    
frame=  871 fps= 26 q=1.6 size=    5471kB time=34.7 bitrate=1290.9kbits/s    
[dvd-slideshow]############################################################
[dvd-slideshow] 5/6 ...p Backgrounds/ringnebula_2_1900x1200.jpg 0:0:6.000
frame=  889 fps= 26 q=2.0 size=    5610kB time=35.4 bitrate=1296.7kbits/s    
frame=  957 fps= 27 q=2.5 size=    5902kB time=38.2 bitrate=1267.1kbits/s    
[dvd-slideshow]############################################################
[dvd-slideshow] Applying Crossfade between images 0:0:3.000
frame=  964 fps= 25 q=2.0 size=    5917kB time=38.4 bitrate=1261.1kbits/s    
frame=  987 fps= 25 q=2.5 size=    6124kB time=39.4 bitrate=1274.6kbits/s    
frame= 1013 fps= 25 q=2.5 size=    6496kB time=40.4 bitrate=1317.2kbits/s    
frame= 1036 fps= 26 q=2.0 size=    6904kB time=41.3 bitrate=1368.7kbits/s    
[dvd-slideshow]############################################################
[dvd-slideshow] 6/6 //tmp/Unnamed//SPACE.png 0:0:6.000
frame= 1054 fps= 26 q=3.0 size=    7205kB time=42.0 bitrate=1404.0kbits/s    
[dvd-slideshow]############################################################
[dvd-slideshow] Doing fadeOUT to background....
[dvd-slideshow] Applying Fadeout to previous image 0:0:3.000
frame= 1076 fps= 24 q=2.5 size=    7544kB time=42.9 bitrate=1439.8kbits/s    
frame= 1097 fps= 24 q=2.5 size=    7888kB time=43.8 bitrate=1476.6kbits/s    
frame= 1122 fps= 24 q=2.5 size=    8190kB time=44.8 bitrate=1498.9kbits/s    
frame= 1150 fps= 24 q=2.0 size=    8402kB time=45.9 bitrate=1500.3kbits/s    
[dvd-slideshow]############################################################
[dvd-slideshow] mpeg2enc process=11594
[dvd-slideshow] output from ps:
  PID TTY      STAT   TIME COMMAND
11594 ?        S      0:10 ffmpeg -f yuv4mpegpipe -i /tmp/Unnamed/dvd-slideshow_temp_9754/dvdss-pipe-9754 -target pal-dvd -r 25 -an -aspect 4:3 -s 720x576 -y -bf 2 -f mpeg2video /tmp/Unnamed/dvd-slideshow_temp_9754/video.mpg
[dvd-slideshow] waiting for encoder to finish...
frame= 1150 fps= 24 q=2.5 Lsize=    8405kB time=46.0 bitrate=1498.1kbits/s    

video:8405kB audio:0kB global headers:0kB muxing overhead 0.000000%
[dvd-slideshow]#####################################
[dvd-slideshow] Processing command-line audio...
[dvd-slideshow] Working on track 1 audio file 0
[dvd-slideshow] /home/nick/Music/Megadeth/Youthanasia [Bonus Tracks][Remaster]/09 Youthanasia.mp3
[dvd-slideshow] fade_in_time=0:0:3.000 fade_out_time=0:0:3.000
[dvd-slideshow] total_audio_length=0:4:7.928
[dvd-slideshow] ###############
[dvd-slideshow] Creating ac3 audio for /home/nick/Music/Megadeth/Youthanasia [Bonus Tracks][Remaster]/09 Youthanasia.mp3...
FFmpeg version r11872+debian_3:0.svn20080206-12ubuntu3, Copyright (c) 2000-2008 Fabrice Bellard, et al.
  configuration: --enable-gpl --enable-pp --enable-swscaler --enable-x11grab --prefix=/usr --enable-libgsm --enable-libtheora --enable-libvorbis --enable-pthreads --disable-strip --enable-libfaad --enable-libfaadbin --enable-liba52 --enable-liba52bin --enable-libdc1394 --disable-armv5te --disable-armv6 --disable-altivec --disable-vis --enable-shared --disable-static
  libavutil version: 49.6.0
  libavcodec version: 51.50.0
  libavformat version: 52.7.0
  libavdevice version: 52.0.0
  built on Oct  3 2008 22:40:31, gcc: 4.3.2
Input #0, wav, from '/tmp/Unnamed/dvd-slideshow_temp_9754/audio1.wav':
  Duration: 00:00:46.0, bitrate: 1536 kb/s
    Stream #0.0: Audio: pcm_s16le, 48000 Hz, stereo, 1536 kb/s
WARNING: The bitrate parameter is set too low. It takes bits/s as argument, not kbits/s
Output #0, ac3, to '/tmp/Unnamed/dvd-slideshow_temp_9754/audio1.ac3':
    Stream #0.0: Audio: ac3, 48000 Hz, 5:1, 0 kb/s
Stream mapping:
  Stream #0.0 -> #0.0
Error while opening codec for output stream #0.0 - maybe incorrect parameters such as bit_rate, rate, width or height
[dvd-slideshow] ERROR during ffmpeg execution!
[dvd-slideshow] see /tmp/Unnamed/dvd-slideshow.log for details
[dvd-slideshow] cleanup...
```

thats the log file it refered me too for details


any ideas?

---

### Post by binbash on 2009-02-19
Which version are you running?Did you install the latest deb from here : [http://www.getdeb.net/app/QDVDAuthor](http://www.getdeb.net/app/QDVDAuthor) ?

---

### Post by metalmaniac248 on 2009-02-19
i am running version 1.0200 i got it from the repos should i try install it from your link?

---

### Post by binbash on 2009-02-19
This might be a ffmpeg bug, or qdvdautor.If i were you :

First i would install latest qdvdautor from getdeb and re-try.If this still occurs i would update ffmpeg to latest svn version (you can find repos for this), yours is a little old (1 year old )

---

### Post by andrew.46 on 2009-02-19
Hi,

FFmpeg altered its syntax a while back for audio bitrate and I believe this has affected qvdauthor. Have a look at:

[http://dvd-slideshow.sourceforge.net/wiki/Main_Page](http://dvd-slideshow.sourceforge.net/wiki/Main_Page)

and the note a little way down the page:

> 
Note: In 0.8.0, there is a known issue with newer versions of sox and ffmpeg requiring a different audio bitrate syntax which makes audio encoding fail. This is fixed in 0.8.2 and in the Subversion Repository code. Ubuntu/Debian users should just upgrade to the latest 0.8.2 version and also install libsox-fmt-all. 


Andrew

---

### Post by metalmaniac248 on 2009-02-20
i actually got the slideshow tool working after installing the latest version from getdeb, but then the dvd encoding kept going wrong in a variety of different ways, 


anyways iv moved on to mandvd, which seems to be a lot more stable (for me anyway) and but im actually getting the same slideshow error in mandvd as i was getting in qdvdauthor, mandvd is definately the latest version, i tried to add the repo that the ffmpeg site listed so i could get the latest version of that but the it wasnt recognised by software sources, 


any ideas how i could install the latest ffmmpeg? (if that will help)

---

### Post by metalmaniac248 on 2009-02-20
```
[dvd-slideshow] Fri Feb 20 13:05:38 GMT 2009
[dvd-slideshow] Command line was:
[dvd-slideshow] /usr/bin/dvd-slideshow -o /home/nick/Documents/Plonk Place/ -n slideshow_13:05:38 -p -f slideshow.txt -a /home/nick/Documents/Plonk Place/theoneilove.mp3
[dvd-slideshow] dvd-slideshow version 0.8.0
[dvd-slideshow] Linux nick-desktop 2.6.27-11-generic #1 SMP Thu Jan 29 19:24:39 UTC 2009 i686 GNU/Linux
[dvd-slideshow] Output directory=/home/nick/Documents/Plonk Place
[dvd-slideshow] Using /bin/bash version GNU bash, version 3.2.39(1)-release (i486-pc-linux-gnu)
[dvd-slideshow] Found mjpegtools version 1.8.0
[dvd-slideshow] Using mjpegtools subsampling -S 420mpeg2
[dvd-slideshow] Found sox version v14.0.1
[dvd-slideshow] Found ImageMagick version 6.3.7
[dvd-slideshow] Found dvdauthor version 0.6.14.
FFmpeg version r11872+debian_3:0.svn20080206-12ubuntu3, Copyright (c) 2000-2008 Fabrice Bellard, et al.
  configuration: --enable-gpl --enable-pp --enable-swscaler --enable-x11grab --prefix=/usr --enable-libgsm --enable-libtheora --enable-libvorbis --enable-pthreads --disable-strip --enable-libfaad --enable-libfaadbin --enable-liba52 --enable-liba52bin --enable-libdc1394 --disable-armv5te --disable-armv6 --disable-altivec --disable-vis --enable-shared --disable-static
  libavutil version: 49.6.0
  libavcodec version: 51.50.0
  libavformat version: 52.7.0
  libavdevice version: 52.0.0
  built on Oct  3 2008 22:40:31, gcc: 4.3.2
FFmpeg r11872+debian_3:0.svn20080206-12ubuntu3
libavutil   3212800
libavcodec  3355136
libavformat 3409664
libavdevice 3407872
[dvd-slideshow] ####################################
[dvd-slideshow] Parsing input file slideshow.txt
[dvd-slideshow]############################################################
[dvd-slideshow] Found 193 images.
[dvd-slideshow] Found 1 audio files.
[dvd-slideshow] Found 0 background slides.
[dvd-slideshow] Found 0 title slides.
[dvd-slideshow] Found 7 transitions (fadein/fadeout/crossfade/wipe).
[dvd-slideshow] Video: PAL 720x576 25fps 4:3
[dvd-slideshow] Audio: AC3 48000 192
[dvd-slideshow] Debug=0  Autocrop=0 Subtitles=dvd Border=0
[dvd-slideshow] Using SMP optimizations for multi-processor machines
[dvd-slideshow] Title_font=...r/share/fonts/type1/gsfonts/n019004l.pfb
[dvd-slideshow] Subtitle_font=...r/share/fonts/type1/gsfonts/n019004l.pfb
[dvd-slideshow] Decoding command-line passed audio files...
[dvd-slideshow] Decoding mp3 audio: /home/nick/Documents/Plonk Place/theoneilove.mp3
FFmpeg version r11872+debian_3:0.svn20080206-12ubuntu3, Copyright (c) 2000-2008 Fabrice Bellard, et al.
  configuration: --enable-gpl --enable-pp --enable-swscaler --enable-x11grab --prefix=/usr --enable-libgsm --enable-libtheora --enable-libvorbis --enable-pthreads --disable-strip --enable-libfaad --enable-libfaadbin --enable-liba52 --enable-liba52bin --enable-libdc1394 --disable-armv5te --disable-armv6 --disable-altivec --disable-vis --enable-shared --disable-static
  libavutil version: 49.6.0
  libavcodec version: 51.50.0
  libavformat version: 52.7.0
  libavdevice version: 52.0.0
  built on Oct  3 2008 22:40:31, gcc: 4.3.2
Input #0, mp3, from '/home/nick/Documents/Plonk Place/theoneilove.mp3':
  Duration: 00:03:17.4, start: 0.000000, bitrate: 128 kb/s
    Stream #0.0: Audio: mp3, 44100 Hz, stereo, 128 kb/s
WARNING: The bitrate parameter is set too low. It takes bits/s as argument, not kbits/s
Output #0, wav, to '/home/nick/Documents/Plonk Place/dvd-slideshow_temp_13584/audio1_0000.wav':
    Stream #0.0: Audio: pcm_s16le, 48000 Hz, stereo, 1536 kb/s
Stream mapping:
  Stream #0.0 -> #0.0
Press [q] to stop encoding
size=    7136kB time=38.1 bitrate=1533.8kbits/s    
size=   14592kB time=77.9 bitrate=1534.6kbits/s    
size=   22048kB time=117.7 bitrate=1534.8kbits/s    
size=   29504kB time=157.5 bitrate=1534.9kbits/s    
size=   36992kB time=197.3 bitrate=1535.9kbits/s    
size=   37024kB time=197.5 bitrate=1536.0kbits/s    

video:0kB audio:37024kB global headers:0kB muxing overhead 0.000116%
[dvd-slideshow] Total audio length = 0:3:17.459
[dvd-slideshow] Total video length = 0:3:9.000
[dvd-slideshow] Temp dir is ...nts/Plonk Place/dvd-slideshow_temp_13584
FFmpeg version r11872+debian_3:0.svn20080206-12ubuntu3, Copyright (c) 2000-2008 Fabrice Bellard, et al.
  configuration: --enable-gpl --enable-pp --enable-swscaler --enable-x11grab --prefix=/usr --enable-libgsm --enable-libtheora --enable-libvorbis --enable-pthreads --disable-strip --enable-libfaad --enable-libfaadbin --enable-liba52 --enable-liba52bin --enable-libdc1394 --disable-armv5te --disable-armv6 --disable-altivec --disable-vis --enable-shared --disable-static
  libavutil version: 49.6.0
  libavcodec version: 51.50.0
  libavformat version: 52.7.0
  libavdevice version: 52.0.0
  built on Oct  3 2008 22:40:31, gcc: 4.3.2
[dvd-slideshow] Creating black background
[dvd-slideshow]############################################################
[dvd-slideshow] 1/193 transition0_0.jpg 0:0:0.200
[dvd-slideshow]############################################################
[dvd-slideshow] 2/193 transition0_1.jpg 0:0:0.200
Input #0, yuv4mpegpipe, from '/home/nick/Documents/Plonk Place/dvd-slideshow_temp_13584/dvdss-pipe-13584':
  Duration: N/A, bitrate: N/A
    Stream #0.0: Video: rawvideo, yuv420p, 720x576 [PAR 59:54 DAR 295:216], 25.00 tb(r)
Output #0, mpeg2video, to '/home/nick/Documents/Plonk Place/dvd-slideshow_temp_13584/video.mpg':
    Stream #0.0: Video: mpeg2video, yuv420p, 720x576 [PAR 16:15 DAR 4:3], q=2-31, 6000 kb/s, 25.00 tb(c)
Stream mapping:
  Stream #0.0 -> #0.0
Press [q] to stop encoding
[dvd-slideshow]############################################################
[dvd-slideshow] 3/193 transition0_2.jpg 0:0:0.200
frame=   11 fps=  0 q=2.5 size=      36kB time=0.3 bitrate= 921.6kbits/s    
[dvd-slideshow]############################################################
[dvd-slideshow] 4/193 transition0_3.jpg 0:0:0.200
frame=   16 fps= 11 q=2.2 size=     144kB time=0.5 bitrate=2264.5kbits/s    
[dvd-slideshow]############################################################
[dvd-slideshow] 5/193 transition0_4.jpg 0:0:0.200
frame=   21 fps=  9 q=2.5 size=     155kB time=0.7 bitrate=1763.1kbits/s    
[dvd-slideshow]############################################################
[dvd-slideshow] 6/193 gibusima_x0.jpg 0:0:10.000
frame=   26 fps=  8 q=2.5 size=     286kB time=0.9 bitrate=2543.4kbits/s    
frame=   87 fps= 23 q=2.5 size=     760kB time=3.4 bitrate=1852.1kbits/s    
frame=  153 fps= 36 q=2.5 size=    1221kB time=6.0 bitrate=1667.1kbits/s    
frame=  222 fps= 46 q=2.5 size=    1751kB time=8.8 bitrate=1637.5kbits/s    
[dvd-slideshow]############################################################
[dvd-slideshow] 7/193 transition1_0.jpg 0:0:0.200
frame=  276 fps= 47 q=2.5 size=    2113kB time=10.9 bitrate=1585.1kbits/s    
[dvd-slideshow]############################################################
[dvd-slideshow] 8/193 transition1_1.jpg 0:0:0.200
frame=  281 fps= 42 q=2.5 size=    2200kB time=11.1 bitrate=1620.8kbits/s    
[dvd-slideshow]############################################################
[dvd-slideshow] 9/193 transition1_2.jpg 0:0:0.200
frame=  286 fps= 38 q=2.0 size=    2298kB time=11.3 bitrate=1663.2kbits/s    
[dvd-slideshow]############################################################
[dvd-slideshow] 10/193 transition1_3.jpg 0:0:0.200
frame=  291 fps= 35 q=2.5 size=    2368kB time=11.5 bitrate=1683.6kbits/s    
[dvd-slideshow]############################################################
[dvd-slideshow] 11/193 transition1_4.jpg 0:0:0.200
frame=  296 fps= 32 q=2.5 size=    2458kB time=11.7 bitrate=1718.3kbits/s    
[dvd-slideshow]############################################################
[dvd-slideshow] 12/193 gibusima_x1.jpg 0:0:4.000
frame=  301 fps= 30 q=3.6 size=    2586kB time=11.9 bitrate=1777.5kbits/s    
frame=  351 fps= 33 q=2.5 size=    2965kB time=13.9 bitrate=1745.0kbits/s    
[dvd-slideshow]############################################################
[dvd-slideshow] 13/193 transition2_0.jpg 0:0:0.200
frame=  401 fps= 34 q=2.5 size=    3374kB time=15.9 bitrate=1736.3kbits/s    
[dvd-slideshow]############################################################
[dvd-slideshow] 14/193 transition2_1.jpg 0:0:0.200
frame=  406 fps= 32 q=2.0 size=    3435kB time=16.1 bitrate=1745.9kbits/s    
[dvd-slideshow]############################################################
[dvd-slideshow] 15/193 transition2_2.jpg 0:0:0.200
frame=  411 fps= 31 q=2.5 size=    3507kB time=16.3 bitrate=1760.4kbits/s    
[dvd-slideshow]############################################################
[dvd-slideshow] 16/193 transition2_3.jpg 0:0:0.200
frame=  416 fps= 29 q=2.5 size=    3602kB time=16.5 bitrate=1786.2kbits/s    
[dvd-slideshow]############################################################
[dvd-slideshow] 17/193 transition2_4.jpg 0:0:0.200
frame=  421 fps= 28 q=1.6 size=    3740kB time=16.7 bitrate=1832.6kbits/s    
[dvd-slideshow]############################################################
[dvd-slideshow] 18/193 gibusima_x2.jpg 0:0:4.000
frame=  426 fps= 27 q=2.5 size=    3756kB time=16.9 bitrate=1818.3kbits/s    
frame=  486 fps= 30 q=2.5 size=    4266kB time=19.3 bitrate=1808.7kbits/s    
[dvd-slideshow]############################################################
[dvd-slideshow] Doing fadeOUT to background....
[dvd-slideshow] Applying Fadeout to previous image 0:0:1.000
frame=  501 fps= 27 q=2.5 size=    4364kB time=19.9 bitrate=1794.8kbits/s    
[dvd-slideshow]############################################################
[dvd-slideshow] 19/193 gibusima_x3.jpg 0:0:4.000
frame=  526 fps= 27 q=8.0 size=    4896kB time=20.9 bitrate=1917.4kbits/s    
frame=  583 fps= 29 q=3.6 size=    5428kB time=23.2 bitrate=1916.7kbits/s    
[dvd-slideshow]############################################################
[dvd-slideshow] 20/193 transition4_0.jpg 0:0:0.200
frame=  626 fps= 30 q=2.5 size=    5756kB time=24.9 bitrate=1892.2kbits/s    
[dvd-slideshow]############################################################
[dvd-slideshow] 21/193 transition4_1.jpg 0:0:0.200
frame=  631 fps= 29 q=1.6 size=    5831kB time=25.1 bitrate=1901.5kbits/s    
[dvd-slideshow]############################################################
[dvd-slideshow] 22/193 transition4_2.jpg 0:0:0.200
frame=  636 fps= 28 q=2.5 size=    5843kB time=25.3 bitrate=1890.5kbits/s    
[dvd-slideshow]############################################################
[dvd-slideshow] 23/193 transition4_3.jpg 0:0:0.200
frame=  641 fps= 27 q=2.5 size=    5911kB time=25.5 bitrate=1897.6kbits/s    
[dvd-slideshow]############################################################
[dvd-slideshow] 24/193 transition4_4.jpg 0:0:0.200
frame=  646 fps= 26 q=3.4 size=    6048kB time=25.7 bitrate=1926.2kbits/s    
[dvd-slideshow]############################################################
[dvd-slideshow] 25/193 gibusima_x4.jpg 0:0:4.000
frame=  651 fps= 26 q=2.5 size=    6108kB time=25.9 bitrate=1930.5kbits/s    
frame=  692 fps= 27 q=2.5 size=    6442kB time=27.6 bitrate=1914.7kbits/s    
frame=  740 fps= 28 q=2.5 size=    6811kB time=29.5 bitrate=1892.6kbits/s    
[dvd-slideshow]############################################################
[dvd-slideshow] 26/193 transition5_0.jpg 0:0:0.200
frame=  751 fps= 28 q=3.6 size=    6904kB time=29.9 bitrate=1890.3kbits/s    
[dvd-slideshow]############################################################
[dvd-slideshow] 27/193 transition5_1.jpg 0:0:0.200
frame=  756 fps= 27 q=2.5 size=    6937kB time=30.1 bitrate=1886.8kbits/s    
[dvd-slideshow]############################################################
[dvd-slideshow] 28/193 transition5_2.jpg 0:0:0.200
frame=  761 fps= 26 q=2.5 size=    6973kB time=30.3 bitrate=1883.9kbits/s    
[dvd-slideshow]############################################################
[dvd-slideshow] 29/193 transition5_3.jpg 0:0:0.200
frame=  766 fps= 26 q=3.7 size=    7077kB time=30.5 bitrate=1899.5kbits/s    
[dvd-slideshow]############################################################
[dvd-slideshow] 30/193 transition5_4.jpg 0:0:0.200
frame=  771 fps= 25 q=2.5 size=    7105kB time=30.7 bitrate=1894.7kbits/s    
[dvd-slideshow]############################################################
[dvd-slideshow] 31/193 gibusima_x5.jpg 0:0:4.000
frame=  776 fps= 25 q=2.5 size=    7216kB time=30.9 bitrate=1911.7kbits/s    
frame=  840 fps= 26 q=2.5 size=    7655kB time=33.5 bitrate=1873.0kbits/s    
[dvd-slideshow]############################################################
[dvd-slideshow] Applying Crossfade between images 0:0:1.000
frame=  864 fps= 25 q=2.5 size=    7816kB time=34.4 bitrate=1859.1kbits/s    
[dvd-slideshow]############################################################
frame=  888 fps= 26 q=2.5 size=    8190kB time=35.4 bitrate=1895.2kbits/s    
[dvd-slideshow] 32/193 gibusima_x6.jpg 0:0:4.000
frame=  935 fps= 27 q=2.5 size=    8602kB time=37.3 bitrate=1890.1kbits/s    
[dvd-slideshow]############################################################
[dvd-slideshow] 33/193 transition7_0.jpg 0:0:0.200
frame=  976 fps= 27 q=2.0 size=    8912kB time=38.9 bitrate=1875.8kbits/s    
[dvd-slideshow]############################################################
[dvd-slideshow] 34/193 transition7_1.jpg 0:0:0.200
frame=  981 fps= 27 q=2.5 size=    8977kB time=39.1 bitrate=1879.9kbits/s    
[dvd-slideshow]############################################################
[dvd-slideshow] 35/193 transition7_2.jpg 0:0:0.200
frame=  986 fps= 26 q=2.5 size=    9029kB time=39.3 bitrate=1881.1kbits/s    
[dvd-slideshow]############################################################
[dvd-slideshow] 36/193 transition7_3.jpg 0:0:0.200
frame=  991 fps= 26 q=1.6 size=    9140kB time=39.5 bitrate=1894.6kbits/s    
[dvd-slideshow]############################################################
[dvd-slideshow] 37/193 transition7_4.jpg 0:0:0.200
frame=  996 fps= 25 q=2.5 size=    9154kB time=39.7 bitrate=1888.0kbits/s    
[dvd-slideshow]############################################################
[dvd-slideshow] 38/193 gibusima_x7.jpg 0:0:4.000
frame= 1001 fps= 25 q=2.5 size=    9230kB time=39.9 bitrate=1894.1kbits/s    
frame= 1059 fps= 26 q=2.5 size=    9685kB time=42.2 bitrate=1878.2kbits/s    
[dvd-slideshow]############################################################
[dvd-slideshow] Applying Fadein to next image 0:0:1.000
frame= 1101 fps= 25 q=2.5 size=   10031kB time=43.9 bitrate=1871.0kbits/s    
frame= 1125 fps= 26 q=2.5 size=   10511kB time=44.9 bitrate=1918.5kbits/s    
[dvd-slideshow]############################################################
[dvd-slideshow] 39/193 gibusima_x8.jpg 0:0:4.000
frame= 1163 fps= 26 q=2.5 size=   10830kB time=46.4 bitrate=1912.0kbits/s    
[dvd-slideshow]############################################################
[dvd-slideshow] 40/193 transition9_0.jpg 0:0:0.200
frame= 1201 fps= 26 q=3.6 size=   11150kB time=47.9 bitrate=1906.1kbits/s    
[dvd-slideshow]############################################################
[dvd-slideshow] 41/193 transition9_1.jpg 0:0:0.200
frame= 1206 fps= 26 q=2.5 size=   11190kB time=48.1 bitrate=1905.0kbits/s    
[dvd-slideshow]############################################################
[dvd-slideshow] 42/193 transition9_2.jpg 0:0:0.200
frame= 1211 fps= 26 q=2.5 size=   11242kB time=48.3 bitrate=1905.9kbits/s    
[dvd-slideshow]############################################################
[dvd-slideshow] 43/193 transition9_3.jpg 0:0:0.200
frame= 1216 fps= 25 q=3.2 size=   11370kB time=48.5 bitrate=1919.6kbits/s    
[dvd-slideshow]############################################################
[dvd-slideshow] 44/193 transition9_4.jpg 0:0:0.200
frame= 1221 fps= 25 q=2.5 size=   11428kB time=48.7 bitrate=1921.6kbits/s    
[dvd-slideshow]############################################################
[dvd-slideshow] 45/193 gibusima_x9.jpg 0:0:4.000
frame= 1226 fps= 25 q=2.5 size=   11557kB time=48.9 bitrate=1935.3kbits/s    
frame= 1290 fps= 26 q=2.5 size=   12065kB time=51.5 bitrate=1919.9kbits/s    
[dvd-slideshow]############################################################
[dvd-slideshow] Applying Crossfade between images 0:0:1.000
frame= 1314 fps= 25 q=2.5 size=   12249kB time=52.4 bitrate=1913.5kbits/s    
[dvd-slideshow]############################################################
[dvd-slideshow] 46/193 gibusima_x10.jpg 0:0:4.000
frame= 1339 fps= 25 q=2.0 size=   12605kB time=53.4 bitrate=1932.3kbits/s    
frame= 1406 fps= 26 q=2.5 size=   13096kB time=56.1 bitrate=1911.6kbits/s    
[dvd-slideshow]############################################################
[dvd-slideshow] 47/193 transition11_0.jpg 0:0:0.200
frame= 1426 fps= 26 q=2.1 size=   13216kB time=56.9 bitrate=1902.0kbits/s    
[dvd-slideshow]############################################################
[dvd-slideshow] 48/193 transition11_1.jpg 0:0:0.200
frame= 1431 fps= 26 q=2.5 size=   13267kB time=57.1 bitrate=1902.7kbits/s    
[dvd-slideshow]############################################################
[dvd-slideshow] 49/193 transition11_2.jpg 0:0:0.200
frame= 1436 fps= 26 q=2.5 size=   13346kB time=57.3 bitrate=1907.4kbits/s    
[dvd-slideshow]############################################################
[dvd-slideshow] 50/193 transition11_3.jpg 0:0:0.200
frame= 1441 fps= 25 q=3.6 size=   13468kB time=57.5 bitrate=1918.2kbits/s    
[dvd-slideshow]############################################################
[dvd-slideshow] 51/193 transition11_4.jpg 0:0:0.200
frame= 1446 fps= 25 q=2.5 size=   13509kB time=57.7 bitrate=1917.2kbits/s    
[dvd-slideshow]############################################################
[dvd-slideshow] 52/193 gibusima_x11.jpg 0:0:4.000
frame= 1451 fps= 25 q=2.5 size=   13566kB time=57.9 bitrate=1918.8kbits/s    
frame= 1514 fps= 26 q=2.5 size=   14121kB time=60.4 bitrate=1914.0kbits/s    
[dvd-slideshow]############################################################
[dvd-slideshow] 53/193 transition12_0.jpg 0:0:0.200
frame= 1551 fps= 26 q=2.5 size=   14408kB time=61.9 bitrate=1906.2kbits/s    
[dvd-slideshow]############################################################
[dvd-slideshow] 54/193 transition12_1.jpg 0:0:0.200
frame= 1556 fps= 26 q=2.5 size=   14433kB time=62.1 bitrate=1903.3kbits/s    
[dvd-slideshow]############################################################
[dvd-slideshow] 55/193 transition12_2.jpg 0:0:0.200
frame= 1561 fps= 25 q=1.6 size=   14507kB time=62.3 bitrate=1907.0kbits/s    
[dvd-slideshow]############################################################
[dvd-slideshow] 56/193 transition12_3.jpg 0:0:0.200
frame= 1566 fps= 25 q=2.5 size=   14517kB time=62.5 bitrate=1902.2kbits/s    
[dvd-slideshow]############################################################
[dvd-slideshow] 57/193 transition12_4.jpg 0:0:0.200
frame= 1571 fps= 25 q=2.5 size=   14593kB time=62.7 bitrate=1906.0kbits/s    
[dvd-slideshow]############################################################
[dvd-slideshow] 58/193 gibusima_x12.jpg 0:0:4.000
frame= 1576 fps= 25 q=2.0 size=   14707kB time=62.9 bitrate=1914.8kbits/s    
frame= 1639 fps= 25 q=2.0 size=   15174kB time=65.4 bitrate=1899.5kbits/s    
[dvd-slideshow]############################################################
[dvd-slideshow] 59/193 transition13_0.jpg 0:0:0.200
frame= 1676 fps= 25 q=2.5 size=   15450kB time=66.9 bitrate=1891.3kbits/s    
[dvd-slideshow]############################################################
[dvd-slideshow] 60/193 transition13_1.jpg 0:0:0.200
frame= 1681 fps= 25 q=1.6 size=   15523kB time=67.1 bitrate=1894.6kbits/s    
[dvd-slideshow]############################################################
[dvd-slideshow] 61/193 transition13_2.jpg 0:0:0.200
frame= 1686 fps= 25 q=2.5 size=   15538kB time=67.3 bitrate=1890.8kbits/s    
[dvd-slideshow]############################################################
[dvd-slideshow] 62/193 transition13_3.jpg 0:0:0.200
frame= 1691 fps= 25 q=2.5 size=   15553kB time=67.5 bitrate=1887.0kbits/s    
[dvd-slideshow]############################################################
[dvd-slideshow] 63/193 transition13_4.jpg 0:0:0.200
frame= 1696 fps= 24 q=2.0 size=   15672kB time=67.7 bitrate=1895.9kbits/s    
[dvd-slideshow]############################################################
[dvd-slideshow] 64/193 gibusima_x13.jpg 0:0:4.000
frame= 1701 fps= 24 q=2.5 size=   15683kB time=67.9 bitrate=1891.6kbits/s    
frame= 1759 fps= 25 q=2.0 size=   16201kB time=70.2 bitrate=1889.5kbits/s    
[dvd-slideshow]############################################################
[dvd-slideshow] 65/193 transition14_0.jpg 0:0:0.200
frame= 1801 fps= 25 q=1.6 size=   16554kB time=71.9 bitrate=1885.6kbits/s    
[dvd-slideshow]############################################################
[dvd-slideshow] 66/193 transition14_1.jpg 0:0:0.200
frame= 1806 fps= 25 q=2.5 size=   16571kB time=72.1 bitrate=1882.3kbits/s    
[dvd-slideshow]############################################################
[dvd-slideshow] 67/193 transition14_2.jpg 0:0:0.200
frame= 1811 fps= 25 q=2.5 size=   16616kB time=72.3 bitrate=1882.1kbits/s    
[dvd-slideshow]############################################################
[dvd-slideshow] 68/193 transition14_3.jpg 0:0:0.200
frame= 1816 fps= 24 q=2.4 size=   16751kB time=72.5 bitrate=1892.3kbits/s    
[dvd-slideshow]############################################################
[dvd-slideshow] 69/193 transition14_4.jpg 0:0:0.200
frame= 1821 fps= 24 q=2.5 size=   16763kB time=72.7 bitrate=1888.4kbits/s    
[dvd-slideshow]############################################################
[dvd-slideshow] 70/193 gibusima_x14.jpg 0:0:4.000
frame= 1826 fps= 24 q=2.5 size=   16898kB time=72.9 bitrate=1898.4kbits/s    
frame= 1883 fps= 25 q=2.5 size=   17296kB time=75.2 bitrate=1884.2kbits/s    
[dvd-slideshow]############################################################
[dvd-slideshow] 71/193 transition15_0.jpg 0:0:0.200
frame= 1926 fps= 25 q=2.5 size=   17642kB time=76.9 bitrate=1878.9kbits/s    
[dvd-slideshow]############################################################
[dvd-slideshow] 72/193 transition15_1.jpg 0:0:0.200
frame= 1931 fps= 25 q=2.5 size=   17647kB time=77.1 bitrate=1874.6kbits/s    
[dvd-slideshow]############################################################
[dvd-slideshow] 73/193 transition15_2.jpg 0:0:0.200
frame= 1936 fps= 24 q=2.0 size=   17735kB time=77.3 bitrate=1879.0kbits/s    
[dvd-slideshow]############################################################
[dvd-slideshow] 74/193 transition15_3.jpg 0:0:0.200
frame= 1941 fps= 24 q=2.5 size=   17742kB time=77.5 bitrate=1874.9kbits/s    
[dvd-slideshow]############################################################
[dvd-slideshow] 75/193 transition15_4.jpg 0:0:0.200
frame= 1946 fps= 24 q=2.5 size=   17839kB time=77.7 bitrate=1880.3kbits/s    
[dvd-slideshow]############################################################
[dvd-slideshow] 76/193 gibusima_x15.jpg 0:0:4.000
frame= 1951 fps= 24 q=3.0 size=   17949kB time=77.9 bitrate=1887.0kbits/s    
frame= 2014 fps= 25 q=2.0 size=   18436kB time=80.4 bitrate=1877.5kbits/s    
[dvd-slideshow]############################################################
[dvd-slideshow] 77/193 transition16_0.jpg 0:0:0.200
frame= 2051 fps= 25 q=2.5 size=   18715kB time=81.9 bitrate=1871.5kbits/s    
[dvd-slideshow]############################################################
[dvd-slideshow] 78/193 transition16_1.jpg 0:0:0.200
frame= 2056 fps= 24 q=2.0 size=   18829kB time=82.1 bitrate=1878.3kbits/s    
[dvd-slideshow]############################################################
[dvd-slideshow] 79/193 transition16_2.jpg 0:0:0.200
frame= 2061 fps= 24 q=2.5 size=   18846kB time=82.3 bitrate=1875.4kbits/s    
[dvd-slideshow]############################################################
[dvd-slideshow] 80/193 transition16_3.jpg 0:0:0.200
frame= 2066 fps= 24 q=2.5 size=   18947kB time=82.5 bitrate=1881.0kbits/s    
[dvd-slideshow]############################################################
[dvd-slideshow] 81/193 transition16_4.jpg 0:0:0.200
frame= 2071 fps= 24 q=2.0 size=   19076kB time=82.7 bitrate=1889.1kbits/s    
[dvd-slideshow]############################################################
[dvd-slideshow] 82/193 gibusima_x16.jpg 0:0:4.000
frame= 2076 fps= 24 q=2.5 size=   19088kB time=82.9 bitrate=1885.8kbits/s    
frame= 2142 fps= 24 q=2.5 size=   19629kB time=85.6 bitrate=1879.4kbits/s    
[dvd-slideshow]############################################################
[dvd-slideshow] 83/193 transition17_0.jpg 0:0:0.200
frame= 2176 fps= 24 q=2.0 size=   19908kB time=86.9 bitrate=1876.2kbits/s    
[dvd-slideshow]############################################################
[dvd-slideshow] 84/193 transition17_1.jpg 0:0:0.200
frame= 2181 fps= 24 q=2.5 size=   19914kB time=87.1 bitrate=1872.5kbits/s    
[dvd-slideshow]############################################################
[dvd-slideshow] 85/193 transition17_2.jpg 0:0:0.200
frame= 2186 fps= 24 q=2.5 size=   20007kB time=87.3 bitrate=1877.0kbits/s    
[dvd-slideshow]############################################################
[dvd-slideshow] 86/193 transition17_3.jpg 0:0:0.200
frame= 2191 fps= 24 q=2.0 size=   20118kB time=87.5 bitrate=1883.1kbits/s    
[dvd-slideshow]############################################################
[dvd-slideshow] 87/193 transition17_4.jpg 0:0:0.200
frame= 2196 fps= 24 q=2.5 size=   20172kB time=87.7 bitrate=1883.8kbits/s    
[dvd-slideshow]############################################################
[dvd-slideshow] 88/193 gibusima_x17.jpg 0:0:4.000
frame= 2201 fps= 24 q=2.5 size=   20260kB time=87.9 bitrate=1887.8kbits/s    
frame= 2265 fps= 24 q=2.5 size=   20673kB time=90.5 bitrate=1871.7kbits/s    
[dvd-slideshow]############################################################
[dvd-slideshow] 89/193 transition18_0.jpg 0:0:0.200
frame= 2301 fps= 24 q=2.5 size=   20917kB time=91.9 bitrate=1864.2kbits/s    
[dvd-slideshow]############################################################
[dvd-slideshow] 90/193 transition18_1.jpg 0:0:0.200
frame= 2306 fps= 24 q=2.5 size=   20997kB time=92.1 bitrate=1867.2kbits/s    
[dvd-slideshow]############################################################
[dvd-slideshow] 91/193 transition18_2.jpg 0:0:0.200
frame= 2311 fps= 24 q=2.0 size=   21096kB time=92.3 bitrate=1872.0kbits/s    
[dvd-slideshow]############################################################
[dvd-slideshow] 92/193 transition18_3.jpg 0:0:0.200
frame= 2316 fps= 24 q=2.5 size=   21118kB time=92.5 bitrate=1869.9kbits/s    
[dvd-slideshow]############################################################
[dvd-slideshow] 93/193 transition18_4.jpg 0:0:0.200
frame= 2321 fps= 24 q=2.5 size=   21226kB time=92.7 bitrate=1875.3kbits/s    
[dvd-slideshow]############################################################
[dvd-slideshow] 94/193 gibusima_x18.jpg 0:0:4.000
frame= 2326 fps= 23 q=2.0 size=   21370kB time=92.9 bitrate=1884.0kbits/s    
frame= 2389 fps= 24 q=1.6 size=   21866kB time=95.4 bitrate=1876.8kbits/s    
[dvd-slideshow]############################################################
[dvd-slideshow] 95/193 transition19_0.jpg 0:0:0.200
frame= 2426 fps= 24 q=2.5 size=   22124kB time=96.9 bitrate=1870.0kbits/s    
[dvd-slideshow]############################################################
[dvd-slideshow] 96/193 transition19_1.jpg 0:0:0.200
frame= 2431 fps= 24 q=2.0 size=   22184kB time=97.1 bitrate=1871.2kbits/s    
[dvd-slideshow]############################################################
[dvd-slideshow] 97/193 transition19_2.jpg 0:0:0.200
frame= 2436 fps= 24 q=2.5 size=   22191kB time=97.3 bitrate=1867.9kbits/s    
[dvd-slideshow]############################################################
[dvd-slideshow] 98/193 transition19_3.jpg 0:0:0.200
frame= 2441 fps= 24 q=2.5 size=   22273kB time=97.5 bitrate=1871.0kbits/s    
[dvd-slideshow]############################################################
[dvd-slideshow] 99/193 transition19_4.jpg 0:0:0.200
frame= 2446 fps= 24 q=2.0 size=   22388kB time=97.7 bitrate=1876.8kbits/s    
[dvd-slideshow]############################################################
[dvd-slideshow] 100/193 gibusima_x19.jpg 0:0:4.000
frame= 2451 fps= 23 q=2.5 size=   22469kB time=97.9 bitrate=1879.8kbits/s    
frame= 2513 fps= 24 q=2.5 size=   22963kB time=100.4 bitrate=1873.6kbits/s    
[dvd-slideshow]############################################################
[dvd-slideshow] 101/193 transition20_0.jpg 0:0:0.200
frame= 2551 fps= 24 q=2.0 size=   23258kB time=101.9 bitrate=1869.4kbits/s    
[dvd-slideshow]############################################################
[dvd-slideshow] 102/193 transition20_1.jpg 0:0:0.200
frame= 2556 fps= 24 q=2.5 size=   23264kB time=102.1 bitrate=1866.2kbits/s    
[dvd-slideshow]############################################################
[dvd-slideshow] 103/193 transition20_2.jpg 0:0:0.200
frame= 2561 fps= 24 q=2.5 size=   23366kB time=102.3 bitrate=1870.8kbits/s    
[dvd-slideshow]############################################################
[dvd-slideshow] 104/193 transition20_3.jpg 0:0:0.200
frame= 2566 fps= 24 q=2.0 size=   23506kB time=102.5 bitrate=1878.3kbits/s    
[dvd-slideshow]############################################################
[dvd-slideshow] 105/193 transition20_4.jpg 0:0:0.200
frame= 2571 fps= 23 q=2.5 size=   23671kB time=102.7 bitrate=1887.8kbits/s    
[dvd-slideshow]############################################################
[dvd-slideshow] 106/193 gibusima_x20.jpg 0:0:4.000
frame= 2576 fps= 23 q=2.5 size=   23871kB time=102.9 bitrate=1900.0kbits/s    
frame= 2627 fps= 24 q=2.5 size=   24265kB time=105.0 bitrate=1893.9kbits/s    
[dvd-slideshow]############################################################
[dvd-slideshow] 107/193 transition21_0.jpg 0:0:0.200
frame= 2676 fps= 24 q=2.5 size=   24654kB time=106.9 bitrate=1888.9kbits/s    
[dvd-slideshow]############################################################
[dvd-slideshow] 108/193 transition21_1.jpg 0:0:0.200
frame= 2681 fps= 24 q=2.5 size=   24741kB time=107.1 bitrate=1892.1kbits/s    
[dvd-slideshow]############################################################
[dvd-slideshow] 109/193 transition21_2.jpg 0:0:0.200
frame= 2686 fps= 24 q=2.0 size=   24808kB time=107.3 bitrate=1893.7kbits/s    
[dvd-slideshow]############################################################
[dvd-slideshow] 110/193 transition21_3.jpg 0:0:0.200
frame= 2691 fps= 23 q=2.5 size=   24888kB time=107.5 bitrate=1896.2kbits/s    
[dvd-slideshow]############################################################
[dvd-slideshow] 111/193 transition21_4.jpg 0:0:0.200
frame= 2696 fps= 23 q=2.5 size=   24949kB time=107.7 bitrate=1897.4kbits/s    
[dvd-slideshow]############################################################
[dvd-slideshow] 112/193 gibusima_x21.jpg 0:0:4.000
frame= 2701 fps= 23 q=1.6 size=   25068kB time=107.9 bitrate=1902.9kbits/s    
frame= 2760 fps= 24 q=2.5 size=   25399kB time=110.3 bitrate=1886.7kbits/s    
[dvd-slideshow]############################################################
[dvd-slideshow] 113/193 transition22_0.jpg 0:0:0.200
frame= 2801 fps= 24 q=2.5 size=   25706kB time=111.9 bitrate=1881.6kbits/s    
[dvd-slideshow]############################################################
[dvd-slideshow] 114/193 transition22_1.jpg 0:0:0.200
frame= 2806 fps= 24 q=2.0 size=   25711kB time=112.1 bitrate=1878.6kbits/s    
[dvd-slideshow]############################################################
[dvd-slideshow] 115/193 transition22_2.jpg 0:0:0.200
frame= 2811 fps= 23 q=2.5 size=   25775kB time=112.3 bitrate=1879.9kbits/s    
[dvd-slideshow]############################################################
[dvd-slideshow] 116/193 transition22_3.jpg 0:0:0.200
frame= 2816 fps= 23 q=2.5 size=   25795kB time=112.5 bitrate=1878.0kbits/s    
[dvd-slideshow]############################################################
[dvd-slideshow] 117/193 transition22_4.jpg 0:0:0.200
frame= 2821 fps= 23 q=1.6 size=   25880kB time=112.7 bitrate=1880.9kbits/s    
[dvd-slideshow]############################################################
[dvd-slideshow] 118/193 gibusima_x22.jpg 0:0:4.000
frame= 2826 fps= 23 q=2.5 size=   25894kB time=112.9 bitrate=1878.5kbits/s    
frame= 2890 fps= 23 q=2.0 size=   26361kB time=115.5 bitrate=1870.0kbits/s    
[dvd-slideshow]############################################################
[dvd-slideshow] Applying Crossfade between images 0:0:1.000
frame= 2914 fps= 23 q=2.0 size=   26528kB time=116.4 bitrate=1866.3kbits/s    
[dvd-slideshow]############################################################
[dvd-slideshow] 119/193 gibusima_x23.jpg 0:0:4.000
frame= 2939 fps= 23 q=2.5 size=   26860kB time=117.4 bitrate=1873.6kbits/s    
frame= 3002 fps= 24 q=2.5 size=   27412kB time=120.0 bitrate=1871.9kbits/s    
[dvd-slideshow]############################################################
[dvd-slideshow] 120/193 transition24_0.jpg 0:0:0.200
frame= 3026 fps= 24 q=2.5 size=   27603kB time=120.9 bitrate=1870.0kbits/s    
[dvd-slideshow]############################################################
[dvd-slideshow] 121/193 transition24_1.jpg 0:0:0.200
frame= 3031 fps= 24 q=2.0 size=   27621kB time=121.1 bitrate=1868.2kbits/s    
[dvd-slideshow]############################################################
[dvd-slideshow] 122/193 transition24_2.jpg 0:0:0.200
frame= 3036 fps= 24 q=2.5 size=   27625kB time=121.3 bitrate=1865.3kbits/s    
[dvd-slideshow]############################################################
[dvd-slideshow] 123/193 transition24_3.jpg 0:0:0.200
frame= 3041 fps= 23 q=2.5 size=   27707kB time=121.5 bitrate=1867.8kbits/s    
[dvd-slideshow]############################################################
[dvd-slideshow] 124/193 transition24_4.jpg 0:0:0.200
frame= 3046 fps= 23 q=2.0 size=   27771kB time=121.7 bitrate=1869.1kbits/s    
[dvd-slideshow]############################################################
[dvd-slideshow] 125/193 gibusima_x24.jpg 0:0:4.000
frame= 3051 fps= 23 q=2.5 size=   27852kB time=121.9 bitrate=1871.4kbits/s    
frame= 3115 fps= 24 q=2.0 size=   28399kB time=124.5 bitrate=1868.9kbits/s    
[dvd-slideshow]############################################################
[dvd-slideshow] 126/193 transition25_0.jpg 0:0:0.200
frame= 3151 fps= 24 q=3.7 size=   28682kB time=125.9 bitrate=1865.9kbits/s    
[dvd-slideshow]############################################################
[dvd-slideshow] 127/193 transition25_1.jpg 0:0:0.200
frame= 3156 fps= 24 q=2.5 size=   28693kB time=126.1 bitrate=1863.7kbits/s    
[dvd-slideshow]############################################################
[dvd-slideshow] 128/193 transition25_2.jpg 0:0:0.200
frame= 3161 fps= 23 q=2.5 size=   28795kB time=126.3 bitrate=1867.4kbits/s    
[dvd-slideshow]############################################################
[dvd-slideshow] 129/193 transition25_3.jpg 0:0:0.200
frame= 3166 fps= 23 q=2.0 size=   28884kB time=126.5 bitrate=1870.2kbits/s    
[dvd-slideshow]############################################################
[dvd-slideshow] 130/193 transition25_4.jpg 0:0:0.200
frame= 3171 fps= 23 q=2.5 size=   28953kB time=126.7 bitrate=1871.7kbits/s    
[dvd-slideshow]############################################################
[dvd-slideshow] 131/193 gibusima_x25.jpg 0:0:4.000
frame= 3176 fps= 23 q=2.5 size=   29015kB time=126.9 bitrate=1872.8kbits/s    
frame= 3227 fps= 23 q=2.5 size=   29378kB time=129.0 bitrate=1866.2kbits/s    
[dvd-slideshow]############################################################
[dvd-slideshow] 132/193 transition26_0.jpg 0:0:0.200
frame= 3276 fps= 24 q=2.5 size=   29706kB time=130.9 bitrate=1858.8kbits/s    
[dvd-slideshow]############################################################
[dvd-slideshow] 133/193 transition26_1.jpg 0:0:0.200
frame= 3281 fps= 23 q=2.5 size=   29789kB time=131.1 bitrate=1861.1kbits/s    
[dvd-slideshow]############################################################
[dvd-slideshow] 134/193 transition26_2.jpg 0:0:0.200
frame= 3286 fps= 23 q=2.0 size=   29880kB time=131.3 bitrate=1864.0kbits/s    
[dvd-slideshow]############################################################
[dvd-slideshow] 135/193 transition26_3.jpg 0:0:0.200
frame= 3291 fps= 23 q=2.5 size=   29957kB time=131.5 bitrate=1865.9kbits/s    
[dvd-slideshow]############################################################
[dvd-slideshow] 136/193 transition26_4.jpg 0:0:0.200
frame= 3296 fps= 23 q=2.5 size=   30070kB time=131.7 bitrate=1870.1kbits/s    
[dvd-slideshow]############################################################
[dvd-slideshow] 137/193 gibusima_x26.jpg 0:0:4.000
frame= 3301 fps= 23 q=1.6 size=   30279kB time=131.9 bitrate=1880.3kbits/s    
frame= 3353 fps= 23 q=2.5 size=   30630kB time=134.0 bitrate=1872.5kbits/s    
[dvd-slideshow]############################################################
[dvd-slideshow] 138/193 transition27_0.jpg 0:0:0.200
frame= 3401 fps= 23 q=2.5 size=   30965kB time=135.9 bitrate=1866.3kbits/s    
[dvd-slideshow]############################################################
[dvd-slideshow] 139/193 transition27_1.jpg 0:0:0.200
frame= 3406 fps= 23 q=2.0 size=   31017kB time=136.1 bitrate=1866.7kbits/s    
[dvd-slideshow]############################################################
[dvd-slideshow] 140/193 transition27_2.jpg 0:0:0.200
frame= 3411 fps= 23 q=2.5 size=   31088kB time=136.3 bitrate=1868.2kbits/s    
[dvd-slideshow]############################################################
[dvd-slideshow] 141/193 transition27_3.jpg 0:0:0.200
frame= 3416 fps= 23 q=2.5 size=   31174kB time=136.5 bitrate=1870.6kbits/s    
[dvd-slideshow]############################################################
[dvd-slideshow] 142/193 transition27_4.jpg 0:0:0.200
frame= 3421 fps= 23 q=1.6 size=   31304kB time=136.7 bitrate=1875.7kbits/s    
[dvd-slideshow]############################################################
[dvd-slideshow] 143/193 gibusima_x27.jpg 0:0:4.000
frame= 3426 fps= 23 q=2.5 size=   31319kB time=136.9 bitrate=1873.8kbits/s    
frame= 3487 fps= 23 q=2.0 size=   31804kB time=139.4 bitrate=1869.5kbits/s    
[dvd-slideshow]############################################################
[dvd-slideshow] 144/193 transition28_0.jpg 0:0:0.200
frame= 3526 fps= 23 q=2.0 size=   32087kB time=140.9 bitrate=1865.3kbits/s    
[dvd-slideshow]############################################################
[dvd-slideshow] 145/193 transition28_1.jpg 0:0:0.200
frame= 3531 fps= 23 q=2.5 size=   32156kB time=141.1 bitrate=1866.7kbits/s    
[dvd-slideshow]############################################################
[dvd-slideshow] 146/193 transition28_2.jpg 0:0:0.200
frame= 3536 fps= 23 q=2.5 size=   32196kB time=141.3 bitrate=1866.4kbits/s    
[dvd-slideshow]############################################################
[dvd-slideshow] 147/193 transition28_3.jpg 0:0:0.200
frame= 3541 fps= 23 q=1.6 size=   32318kB time=141.5 bitrate=1870.7kbits/s    
[dvd-slideshow]############################################################
[dvd-slideshow] 148/193 transition28_4.jpg 0:0:0.200
frame= 3546 fps= 23 q=2.5 size=   32381kB time=141.7 bitrate=1871.8kbits/s    
[dvd-slideshow]############################################################
[dvd-slideshow] 149/193 gibusima_x28.jpg 0:0:4.000
frame= 3551 fps= 23 q=2.5 size=   32464kB time=141.9 bitrate=1873.9kbits/s    
frame= 3608 fps= 23 q=2.5 size=   32913kB time=144.2 bitrate=1869.8kbits/s    
[dvd-slideshow]############################################################
[dvd-slideshow] 150/193 transition29_0.jpg 0:0:0.200
frame= 3651 fps= 23 q=2.5 size=   33258kB time=145.9 bitrate=1867.1kbits/s    
[dvd-slideshow]############################################################
[dvd-slideshow] 151/193 transition29_1.jpg 0:0:0.200
frame= 3656 fps= 23 q=2.5 size=   33288kB time=146.1 bitrate=1866.2kbits/s    
[dvd-slideshow]############################################################
[dvd-slideshow] 152/193 transition29_2.jpg 0:0:0.200
frame= 3661 fps= 23 q=2.8 size=   33391kB time=146.3 bitrate=1869.4kbits/s    
[dvd-slideshow]############################################################
[dvd-slideshow] 153/193 transition29_3.jpg 0:0:0.200
frame= 3666 fps= 23 q=2.5 size=   33421kB time=146.5 bitrate=1868.6kbits/s    
[dvd-slideshow]############################################################
[dvd-slideshow] 154/193 transition29_4.jpg 0:0:0.200
frame= 3671 fps= 23 q=2.5 size=   33478kB time=146.7 bitrate=1869.2kbits/s    
[dvd-slideshow]############################################################
[dvd-slideshow] 155/193 gibusima_x29.jpg 0:0:4.000
frame= 3676 fps= 23 q=2.0 size=   33585kB time=146.9 bitrate=1872.6kbits/s    
frame= 3740 fps= 23 q=2.5 size=   34014kB time=149.5 bitrate=1864.1kbits/s    
[dvd-slideshow]############################################################
[dvd-slideshow] 156/193 transition30_0.jpg 0:0:0.200
frame= 3776 fps= 23 q=2.5 size=   34266kB time=150.9 bitrate=1860.0kbits/s    
[dvd-slideshow]############################################################
[dvd-slideshow] 157/193 transition30_1.jpg 0:0:0.200
frame= 3781 fps= 23 q=2.7 size=   34346kB time=151.1 bitrate=1861.9kbits/s    
[dvd-slideshow]############################################################
[dvd-slideshow] 158/193 transition30_2.jpg 0:0:0.200
frame= 3786 fps= 23 q=2.5 size=   34375kB time=151.3 bitrate=1860.9kbits/s    
[dvd-slideshow]############################################################
[dvd-slideshow] 159/193 transition30_3.jpg 0:0:0.200
frame= 3791 fps= 23 q=2.5 size=   34435kB time=151.5 bitrate=1861.7kbits/s    
[dvd-slideshow]############################################################
[dvd-slideshow] 160/193 transition30_4.jpg 0:0:0.200
frame= 3796 fps= 23 q=2.0 size=   34552kB time=151.7 bitrate=1865.6kbits/s    
[dvd-slideshow]############################################################
[dvd-slideshow] 161/193 gibusima_x30.jpg 0:0:4.000
frame= 3801 fps= 23 q=2.5 size=   34562kB time=151.9 bitrate=1863.7kbits/s    
frame= 3867 fps= 23 q=2.5 size=   35087kB time=154.6 bitrate=1859.7kbits/s    
[dvd-slideshow]############################################################
[dvd-slideshow] 162/193 transition31_0.jpg 0:0:0.200
frame= 3901 fps= 23 q=1.6 size=   35338kB time=155.9 bitrate=1856.7kbits/s    
[dvd-slideshow]############################################################
[dvd-slideshow] 163/193 transition31_1.jpg 0:0:0.200
frame= 3906 fps= 23 q=2.5 size=   35351kB time=156.1 bitrate=1855.0kbits/s    
[dvd-slideshow]############################################################
[dvd-slideshow] 164/193 transition31_2.jpg 0:0:0.200
frame= 3911 fps= 23 q=2.5 size=   35357kB time=156.3 bitrate=1852.9kbits/s    
[dvd-slideshow]############################################################
[dvd-slideshow] 165/193 transition31_3.jpg 0:0:0.200
frame= 3916 fps= 23 q=2.0 size=   35452kB time=156.5 bitrate=1855.5kbits/s    
[dvd-slideshow]############################################################
[dvd-slideshow] 166/193 transition31_4.jpg 0:0:0.200
frame= 3921 fps= 23 q=2.5 size=   35461kB time=156.7 bitrate=1853.6kbits/s    
[dvd-slideshow]############################################################
[dvd-slideshow] 167/193 gibusima_x31.jpg 0:0:4.000
frame= 3926 fps= 23 q=2.5 size=   35571kB time=156.9 bitrate=1857.0kbits/s    
frame= 3988 fps= 23 q=2.0 size=   36082kB time=159.4 bitrate=1854.4kbits/s    
[dvd-slideshow]############################################################
[dvd-slideshow] 168/193 transition32_0.jpg 0:0:0.200
frame= 4026 fps= 23 q=2.5 size=   36342kB time=160.9 bitrate=1850.0kbits/s    
[dvd-slideshow]############################################################
[dvd-slideshow] 169/193 transition32_1.jpg 0:0:0.200
frame= 4031 fps= 23 q=2.5 size=   36363kB time=161.1 bitrate=1848.8kbits/s    
[dvd-slideshow]############################################################
[dvd-slideshow] 170/193 transition32_2.jpg 0:0:0.200
frame= 4036 fps= 23 q=2.0 size=   36502kB time=161.3 bitrate=1853.6kbits/s    
[dvd-slideshow]############################################################
[dvd-slideshow] 171/193 transition32_3.jpg 0:0:0.200
frame= 4041 fps= 23 q=2.5 size=   36515kB time=161.5 bitrate=1852.0kbits/s    
[dvd-slideshow]############################################################
[dvd-slideshow] 172/193 transition32_4.jpg 0:0:0.200
frame= 4046 fps= 23 q=2.5 size=   36666kB time=161.7 bitrate=1857.3kbits/s    
[dvd-slideshow]############################################################
[dvd-slideshow] 173/193 gibusima_x32.jpg 0:0:4.000
frame= 4051 fps= 23 q=2.0 size=   36799kB time=161.9 bitrate=1861.8kbits/s    
frame= 4112 fps= 23 q=2.5 size=   37200kB time=164.4 bitrate=1854.1kbits/s    
[dvd-slideshow]############################################################
[dvd-slideshow] Doing fadeOUT to background....
[dvd-slideshow] Applying Fadeout to previous image 0:0:1.000
frame= 4126 fps= 23 q=2.0 size=   37305kB time=164.9 bitrate=1853.0kbits/s    
frame= 4150 fps= 23 q=2.0 size=   37689kB time=165.9 bitrate=1861.3kbits/s    
[dvd-slideshow]############################################################
[dvd-slideshow] 174/193 gibusima_x33.jpg 0:0:4.000
frame= 4151 fps= 23 q=2.5 size=   37697kB time=165.9 bitrate=1861.2kbits/s    
frame= 4207 fps= 23 q=1.6 size=   38196kB time=168.2 bitrate=1860.8kbits/s    
[dvd-slideshow]############################################################
[dvd-slideshow] 175/193 transition34_0.jpg 0:0:0.200
frame= 4251 fps= 23 q=2.5 size=   38450kB time=169.9 bitrate=1853.7kbits/s    
[dvd-slideshow]############################################################
[dvd-slideshow] 176/193 transition34_1.jpg 0:0:0.200
frame= 4256 fps= 23 q=2.5 size=   38535kB time=170.1 bitrate=1855.6kbits/s    
[dvd-slideshow]############################################################
[dvd-slideshow] 177/193 transition34_2.jpg 0:0:0.200
frame= 4261 fps= 23 q=2.0 size=   38602kB time=170.3 bitrate=1856.7kbits/s    
[dvd-slideshow]############################################################
[dvd-slideshow] 178/193 transition34_3.jpg 0:0:0.200
frame= 4266 fps= 23 q=2.5 size=   38609kB time=170.5 bitrate=1854.8kbits/s    
[dvd-slideshow]############################################################
[dvd-slideshow] 179/193 transition34_4.jpg 0:0:0.200
frame= 4271 fps= 23 q=2.5 size=   38678kB time=170.7 bitrate=1856.0kbits/s    
[dvd-slideshow]############################################################
[dvd-slideshow] 180/193 gibusima_x34.jpg 0:0:4.000
frame= 4276 fps= 23 q=2.0 size=   38741kB time=170.9 bitrate=1856.8kbits/s    
frame= 4344 fps= 23 q=2.5 size=   39099kB time=173.6 bitrate=1844.6kbits/s    
[dvd-slideshow]############################################################
[dvd-slideshow] 181/193 transition35_0.jpg 0:0:0.200
frame= 4376 fps= 23 q=2.5 size=   39272kB time=174.9 bitrate=1839.2kbits/s    
[dvd-slideshow]############################################################
[dvd-slideshow] 182/193 transition35_1.jpg 0:0:0.200
frame= 4381 fps= 23 q=2.0 size=   39337kB time=175.1 bitrate=1840.1kbits/s    
[dvd-slideshow]############################################################
[dvd-slideshow] 183/193 transition35_2.jpg 0:0:0.200
frame= 4386 fps= 23 q=2.5 size=   39346kB time=175.3 bitrate=1838.5kbits/s    
[dvd-slideshow]############################################################
[dvd-slideshow] 184/193 transition35_3.jpg 0:0:0.200
frame= 4391 fps= 23 q=2.5 size=   39437kB time=175.5 bitrate=1840.6kbits/s    
[dvd-slideshow]############################################################
[dvd-slideshow] 185/193 transition35_4.jpg 0:0:0.200
frame= 4396 fps= 23 q=2.0 size=   39520kB time=175.7 bitrate=1842.4kbits/s    
[dvd-slideshow]############################################################
[dvd-slideshow] 186/193 gibusima_x35.jpg 0:0:4.000
frame= 4401 fps= 23 q=2.5 size=   39584kB time=175.9 bitrate=1843.3kbits/s    
frame= 4464 fps= 23 q=2.5 size=   40026kB time=178.4 bitrate=1837.5kbits/s    
[dvd-slideshow]############################################################
[dvd-slideshow] 187/193 transition36_0.jpg 0:0:0.200
frame= 4501 fps= 23 q=2.0 size=   40270kB time=179.9 bitrate=1833.6kbits/s    
[dvd-slideshow]############################################################
[dvd-slideshow] 188/193 transition36_1.jpg 0:0:0.200
frame= 4506 fps= 23 q=2.5 size=   40274kB time=180.1 bitrate=1831.7kbits/s    
[dvd-slideshow]############################################################
[dvd-slideshow] 189/193 transition36_2.jpg 0:0:0.200
frame= 4511 fps= 23 q=2.5 size=   40348kB time=180.3 bitrate=1833.0kbits/s    
[dvd-slideshow]############################################################
[dvd-slideshow] 190/193 transition36_3.jpg 0:0:0.200
frame= 4516 fps= 23 q=2.0 size=   40380kB time=180.5 bitrate=1832.4kbits/s    
[dvd-slideshow]############################################################
[dvd-slideshow] 191/193 transition36_4.jpg 0:0:0.200
frame= 4521 fps= 23 q=2.5 size=   40450kB time=180.7 bitrate=1833.6kbits/s    
[dvd-slideshow]############################################################
[dvd-slideshow] 192/193 gibusima_x36.jpg 0:0:4.000
frame= 4526 fps= 23 q=2.5 size=   40501kB time=180.9 bitrate=1833.9kbits/s    
frame= 4592 fps= 23 q=2.5 size=   41066kB time=183.6 bitrate=1832.7kbits/s    
[dvd-slideshow]############################################################
[dvd-slideshow] 193/193 gibusima_x37.jpg 0:0:4.000
frame= 4626 fps= 23 q=2.5 size=   41256kB time=184.9 bitrate=1827.7kbits/s    
[dvd-slideshow]############################################################
[dvd-slideshow] Doing fadeOUT to background....
[dvd-slideshow] Applying Fadeout to previous image 0:0:2.000
frame= 4676 fps= 23 q=2.5 size=   41636kB time=186.9 bitrate=1824.7kbits/s    
frame= 4701 fps= 23 q=2.5 size=   41953kB time=187.9 bitrate=1828.9kbits/s    
[dvd-slideshow]############################################################
frame= 4725 fps= 23 q=2.5 size=   42177kB time=188.9 bitrate=1829.3kbits/s    
[dvd-slideshow] mpeg2enc process=6394
[dvd-slideshow] output from ps:
  PID TTY      STAT   TIME COMMAND
 6394 ?        S      0:38 ffmpeg -f yuv4mpegpipe -i /home/nick/Documents/Plonk Place/dvd-slideshow_temp_13584/dvdss-pipe-13584 -target pal-dvd -r 25 -an -aspect 4:3 -s 720x576 -y -bf 2 -f mpeg2video /home/nick/Documents/Plonk Place/dvd-slideshow_temp_13584/video.mpg
[dvd-slideshow] waiting for encoder to finish...
frame= 4725 fps= 23 q=2.5 Lsize=   42185kB time=189.0 bitrate=1828.8kbits/s    

video:42185kB audio:0kB global headers:0kB muxing overhead 0.000000%
[dvd-slideshow]#####################################
[dvd-slideshow] Processing command-line audio...
[dvd-slideshow] Working on track 1 audio file 0
[dvd-slideshow] /home/nick/Documents/Plonk Place/theoneilove.mp3
[dvd-slideshow] fade_in_time=0:0:3.000 fade_out_time=0:0:3.000
[dvd-slideshow] total_audio_length=0:3:17.459
[dvd-slideshow] ###############
[dvd-slideshow] Creating ac3 audio for /home/nick/Documents/Plonk Place/theoneilove.mp3...
FFmpeg version r11872+debian_3:0.svn20080206-12ubuntu3, Copyright (c) 2000-2008 Fabrice Bellard, et al.
  configuration: --enable-gpl --enable-pp --enable-swscaler --enable-x11grab --prefix=/usr --enable-libgsm --enable-libtheora --enable-libvorbis --enable-pthreads --disable-strip --enable-libfaad --enable-libfaadbin --enable-liba52 --enable-liba52bin --enable-libdc1394 --disable-armv5te --disable-armv6 --disable-altivec --disable-vis --enable-shared --disable-static
  libavutil version: 49.6.0
  libavcodec version: 51.50.0
  libavformat version: 52.7.0
  libavdevice version: 52.0.0
  built on Oct  3 2008 22:40:31, gcc: 4.3.2
Input #0, wav, from '/home/nick/Documents/Plonk Place/dvd-slideshow_temp_13584/audio1.wav':
  Duration: 00:03:09.0, bitrate: 1536 kb/s
    Stream #0.0: Audio: pcm_s16le, 48000 Hz, stereo, 1536 kb/s
WARNING: The bitrate parameter is set too low. It takes bits/s as argument, not kbits/s
Output #0, ac3, to '/home/nick/Documents/Plonk Place/dvd-slideshow_temp_13584/audio1.ac3':
    Stream #0.0: Audio: ac3, 48000 Hz, 5:1, 0 kb/s
Stream mapping:
  Stream #0.0 -> #0.0
Error while opening codec for output stream #0.0 - maybe incorrect parameters such as bit_rate, rate, width or height
[dvd-slideshow] ERROR during ffmpeg execution!
[dvd-slideshow] see /home/nick/Documents/Plonk Place/dvd-slideshow.log for details
[dvd-slideshow] cleanup...
```



thats the log for the slideshow when i get the error

---

### Post by andrew.46 on 2009-02-20
Hi,

Certainly is the problem with audio bitrate:

```
Stream #0.0: Audio: ac3, 48000 Hz, 5:1, **[COLOR="Red"]0 kb/s[/COLOR]**
```

Have you managed to update qdvdauthor and/or FFmpeg?

Andrew

---

### Post by metalmaniac248 on 2009-02-20
qdvdauthor is up to date as is mandvd, not sure how to update ffmpeg though

---

### Post by metalmaniac248 on 2009-02-20
qdvdauthor is up to date as is mandvd, not sure how to update ffmpeg though

---

### Post by metalmaniac248 on 2009-02-20
apologies for the duplicate post

---

### Post by andrew.46 on 2009-02-20
Hi metalmaniac248,

> **metalmaniac248 said:**
> qdvdauthor is up to date as is mandvd, not sure how to update ffmpeg though

I suspect that qdvdauthor will use whatever version of FFmpeg is available to the system so if you are willing to try something a little different there is a guide o using the current svn FFmpeg [here]("http://ubuntuforums.org/showthread.php?t=786095"). Or if this looks a little too much you could wait for the next official release of FFmpeg which is coming up in a week or so.

All the best,

Andrew

---

